<?xml version="1.0" encoding="utf-8"?>
<!-- Generator: Adobe Illustrator 26.0.3, SVG Export Plug-In . SVG Version: 6.00 Build 0)  -->
<svg version="1.1" id="レイヤー_1" xmlns="http://www.w3.org/2000/svg" xmlns:xlink="http://www.w3.org/1999/xlink" x="0px"
	 y="0px" viewBox="0 0 350 150" style="enable-background:new 0 0 350 150;" xml:space="preserve">
<style type="text/css">
	.st0{fill:#8FBEBB;}
</style>
<path class="st0" d="M9.55,128c0.94,0,1.66,0.17,2.15,0.5c0.6,0.41,0.93,1,0.93,1.85c0,1.78-1.47,2.54-2.74,2.55
	c-0.12,0-0.27-0.01-0.36-0.02l-0.69-0.18v1.67c0,1.03,0.08,1.08,1.12,1.18V136H6.17v-0.46c0.89-0.11,1.01-0.15,1.01-1.18v-4.7
	c0-1.03-0.12-1.14-1.01-1.21V128H9.55z M8.84,132.17c0.14,0.07,0.38,0.12,0.63,0.12c0.55,0,1.44-0.33,1.44-1.96
	c0-1.38-0.73-1.83-1.5-1.83c-0.25,0-0.39,0.06-0.46,0.12c-0.08,0.07-0.11,0.2-0.11,0.38V132.17z"/>
<path class="st0" d="M20.91,133.9c-0.06,0.33-0.39,1.75-0.5,2.09h-6.19v-0.44c1.09-0.11,1.16-0.17,1.16-1.21v-4.7
	c0-1.05-0.14-1.12-0.95-1.19V128h3.87c1.25,0,1.67-0.01,1.84-0.02c0.01,0.22,0.07,1.23,0.12,1.99l-0.47,0.06
	c-0.11-0.42-0.31-0.92-0.51-1.14c-0.21-0.25-0.37-0.32-0.98-0.32h-0.78c-0.45,0-0.5,0.02-0.5,0.44v2.57h1.17
	c0.67,0,0.79-0.18,0.97-1.06h0.46v2.74h-0.46c-0.19-0.91-0.29-1.06-0.98-1.06h-1.16v2.12c0,0.85,0.02,1.11,0.76,1.12h0.85
	c0.67,0,0.85-0.09,1.11-0.42c0.3-0.36,0.54-0.81,0.73-1.23L20.91,133.9z"/>
<path class="st0" d="M30.01,136.07c-0.07,0-0.22,0-0.36-0.01c-1.51-0.07-1.95-0.41-2.31-0.92c-0.48-0.68-0.82-1.43-1.23-2.17
	c-0.18-0.33-0.35-0.41-0.73-0.41l-0.24-0.01v1.8c0,1,0.12,1.08,1.01,1.19V136h-3.65v-0.46c0.91-0.1,1.01-0.2,1.01-1.19v-4.71
	c0-0.97-0.12-1.11-1.01-1.18V128h3.46c1.06,0,1.67,0.12,2.16,0.47c0.48,0.33,0.8,0.87,0.8,1.64c0,1.1-0.7,1.67-1.49,1.99
	c0.18,0.37,0.64,1.17,1,1.74c0.42,0.68,0.68,1.01,0.91,1.28c0.27,0.32,0.41,0.42,0.75,0.54L30.01,136.07z M25.46,132.05
	c0.51,0,0.9-0.09,1.17-0.32c0.39-0.34,0.56-0.81,0.56-1.44c0-1.3-0.73-1.77-1.39-1.77c-0.32,0-0.48,0.05-0.55,0.12
	c-0.08,0.07-0.11,0.22-0.11,0.47v2.94H25.46z"/>
<path class="st0" d="M35.63,130.03c-0.24-0.79-0.57-1.69-1.67-1.69c-0.69,0-1.14,0.5-1.14,1.19c0,0.68,0.44,1.08,1.49,1.62
	c1.28,0.65,2.09,1.29,2.09,2.51c0,1.45-1.17,2.51-2.87,2.51c-0.76,0-1.44-0.21-2-0.38c-0.07-0.28-0.27-1.56-0.36-2.14l0.46-0.11
	c0.24,0.78,0.91,2.12,2.07,2.12c0.73,0,1.17-0.47,1.17-1.26c0-0.71-0.43-1.13-1.43-1.69c-1.24-0.69-2.05-1.3-2.05-2.59
	c0-1.29,0.98-2.31,2.77-2.31c0.82,0,1.44,0.18,1.7,0.22c0.05,0.46,0.13,1.1,0.23,1.87L35.63,130.03z"/>
<path class="st0" d="M42.42,127.82c2.21,0,4,1.66,4,4.09c0,2.62-1.81,4.27-4.06,4.27c-2.38,0-4.11-1.8-4.11-4.17
	C38.25,129.9,39.71,127.82,42.42,127.82z M42.25,128.37c-1.22,0-2.11,1.23-2.11,3.41c0,2.08,0.8,3.86,2.41,3.86
	c1.13,0,2.01-1.13,2.01-3.38C44.56,129.82,43.63,128.37,42.25,128.37z"/>
<path class="st0" d="M56.61,128.45c-0.73,0.1-0.95,0.26-0.99,0.81c-0.04,0.48-0.07,0.9-0.07,1.97v4.9h-0.67l-4.97-6.15v2.78
	c0,1.07,0.02,1.55,0.06,1.91c0.05,0.54,0.3,0.82,1.18,0.87V136h-2.96v-0.46c0.68-0.06,0.98-0.25,1.05-0.82
	c0.05-0.44,0.07-0.89,0.07-1.96v-2.92c0-0.41-0.02-0.68-0.25-1c-0.21-0.31-0.5-0.34-1-0.39V128h2.32l4.54,5.45v-2.22
	c0-1.07-0.01-1.48-0.05-1.93c-0.03-0.53-0.23-0.79-1.22-0.85V128h2.94V128.45z"/>
<path class="st0" d="M61.91,136v-0.46c0.75-0.11,0.75-0.25,0.58-0.78c-0.12-0.37-0.31-0.92-0.49-1.42h-2.32
	c-0.13,0.38-0.3,0.85-0.42,1.23c-0.25,0.78,0.04,0.87,0.98,0.96V136H57.3v-0.46c0.75-0.1,0.94-0.21,1.35-1.24l2.48-6.36l0.57-0.11
	c0.76,2.14,1.57,4.33,2.35,6.39c0.44,1.14,0.55,1.23,1.32,1.33V136H61.91z M60.86,130.11c-0.35,0.89-0.68,1.71-0.98,2.61h1.9
	L60.86,130.11z"/>
<path class="st0" d="M72.71,133.83c-0.1,0.53-0.43,1.83-0.54,2.17h-5.91v-0.46c1.05-0.07,1.14-0.16,1.14-1.19v-4.69
	c0-1.03-0.12-1.13-1.01-1.21V128h3.72v0.46c-0.93,0.09-1.05,0.17-1.05,1.21v4.78c0,0.68,0.02,0.98,0.68,1
	c0.02,0.01,0.57,0.01,0.62,0.01c0.68,0,0.86-0.15,1.14-0.48c0.23-0.25,0.54-0.78,0.75-1.28L72.71,133.83z"/>
<path class="st0" d="M82.43,131.59c1.25,0.23,2.13,0.85,2.13,2.02c0,0.76-0.46,1.48-1.14,1.87c-0.61,0.34-1.38,0.52-2.27,0.52h-3.34
	v-0.46c0.92-0.1,1.01-0.16,1.01-1.19v-4.69c0-1.03-0.15-1.14-1-1.21V128h3.62c0.91,0,1.48,0.12,1.96,0.43
	c0.44,0.3,0.73,0.76,0.73,1.37C84.13,130.81,83.2,131.43,82.43,131.59z M80.91,131.43c1.13,0,1.55-0.5,1.55-1.42
	c0-1.07-0.68-1.48-1.34-1.48c-0.29,0-0.47,0.04-0.56,0.1c-0.13,0.09-0.12,0.2-0.12,0.46v2.34H80.91z M80.45,134.32
	c0,0.89,0.39,1.16,1.04,1.14c0.66-0.01,1.3-0.6,1.3-1.75c0-1.19-0.58-1.76-1.92-1.76h-0.42V134.32z"/>
<path class="st0" d="M90.6,127.82c2.21,0,4,1.66,4,4.09c0,2.62-1.81,4.27-4.06,4.27c-2.38,0-4.11-1.8-4.11-4.17
	C86.43,129.9,87.89,127.82,90.6,127.82z M90.42,128.37c-1.22,0-2.11,1.23-2.11,3.41c0,2.08,0.8,3.86,2.41,3.86
	c1.13,0,2.01-1.13,2.01-3.38C92.74,129.82,91.81,128.37,90.42,128.37z"/>
<path class="st0" d="M100.14,128c1.53,0,2.65,0.33,3.41,1.07c0.61,0.58,1.07,1.44,1.07,2.68c0,1.42-0.57,2.5-1.49,3.21
	c-0.88,0.69-2.01,1.03-3.37,1.03h-3.28v-0.46c0.91-0.07,1.01-0.18,1.01-1.21v-4.68c0-1.03-0.13-1.13-1.01-1.21V128H100.14z
	 M99.15,134.25c0,0.87,0.21,1.17,1.08,1.17c1.61,0,2.54-1.16,2.54-3.48c0-1.17-0.31-2.19-0.86-2.72c-0.5-0.52-1.12-0.69-1.92-0.69
	c-0.44,0-0.64,0.1-0.72,0.17c-0.11,0.11-0.13,0.32-0.13,0.68V134.25z"/>
<path class="st0" d="M113.37,128.45c-0.76,0.09-1.04,0.26-1.47,1.01c-0.43,0.76-0.8,1.44-1.38,2.67c-0.1,0.2-0.13,0.34-0.13,0.65
	v1.53c0,1.07,0.1,1.11,1.07,1.23V136h-3.77v-0.46c0.94-0.12,1.02-0.16,1.02-1.23v-1.42c0-0.27-0.05-0.39-0.13-0.57
	c-0.35-0.73-0.79-1.55-1.5-2.84c-0.44-0.8-0.62-0.96-1.31-1.03V128h3.49v0.46c-0.8,0.11-0.78,0.27-0.57,0.7
	c0.39,0.8,0.91,1.78,1.36,2.68c0.36-0.69,0.93-1.87,1.26-2.62c0.23-0.49,0.13-0.65-0.73-0.76V128h2.78V128.45z"/>
<path class="st0" d="M123.97,136v-0.46c0.91-0.1,0.97-0.18,0.97-1.29l-0.01-4.8c-0.86,2.12-1.8,4.46-2.66,6.55h-0.39
	c-0.77-2.01-1.62-4.3-2.48-6.45c-0.15,3.86-0.15,4.63-0.15,5.07c0.01,0.66,0.25,0.84,1.14,0.92V136h-2.96v-0.46
	c0.68-0.06,0.99-0.2,1.08-0.94c0.05-0.37,0.1-1.07,0.37-5.13c0.04-0.59-0.05-0.92-1.07-1.02V128h2.57l2.3,5.43l2.31-5.43h2.52v0.46
	c-0.95,0.1-1.06,0.2-1.04,1.18l0.1,4.62c0.01,1.11,0.06,1.16,1.03,1.29V136H123.97z"/>
<path class="st0" d="M133.14,136v-0.46c0.75-0.11,0.75-0.25,0.58-0.78c-0.12-0.37-0.31-0.92-0.49-1.42h-2.32
	c-0.13,0.38-0.3,0.85-0.42,1.23c-0.25,0.78,0.04,0.87,0.98,0.96V136h-2.94v-0.46c0.75-0.1,0.94-0.21,1.35-1.24l2.48-6.36l0.57-0.11
	c0.76,2.14,1.57,4.33,2.35,6.39c0.44,1.14,0.55,1.23,1.32,1.33V136H133.14z M132.1,130.11c-0.35,0.89-0.68,1.71-0.98,2.61h1.9
	L132.1,130.11z"/>
<path class="st0" d="M137.63,128h3.61v0.46c-0.86,0.11-0.99,0.17-0.99,1.21v2.07c0.25-0.07,0.54-0.27,0.93-0.65
	c0.81-0.82,1.34-1.49,1.69-1.96c0.29-0.38,0.22-0.57-0.33-0.64l-0.23-0.02V128h3.12v0.46c-0.82,0.11-1.26,0.17-2.01,1.01
	c-0.46,0.5-1.05,1.12-1.57,1.71c0.75,1.08,1.68,2.4,2.6,3.59c0.44,0.59,0.6,0.68,1.2,0.78V136h-2.37c-0.5-0.7-1.55-2.19-2.4-3.43
	c-0.25-0.37-0.44-0.44-0.63-0.41v2.18c0,1.05,0.08,1.08,1,1.21V136h-3.62v-0.46c0.89-0.1,1.01-0.16,1.01-1.21v-4.68
	c0-1.03-0.12-1.12-1.01-1.21V128z"/>
<path class="st0" d="M153.23,133.9c-0.06,0.33-0.39,1.75-0.5,2.09h-6.19v-0.44c1.09-0.11,1.16-0.17,1.16-1.21v-4.7
	c0-1.05-0.14-1.12-0.95-1.19V128h3.87c1.25,0,1.67-0.01,1.84-0.02c0.01,0.22,0.07,1.23,0.12,1.99l-0.47,0.06
	c-0.11-0.42-0.31-0.92-0.51-1.14c-0.21-0.25-0.37-0.32-0.98-0.32h-0.78c-0.45,0-0.5,0.02-0.5,0.44v2.57h1.17
	c0.67,0,0.79-0.18,0.97-1.06h0.46v2.74h-0.46c-0.19-0.91-0.29-1.06-0.98-1.06h-1.16v2.12c0,0.85,0.02,1.11,0.76,1.12h0.85
	c0.67,0,0.85-0.09,1.11-0.42c0.3-0.36,0.54-0.81,0.73-1.23L153.23,133.9z"/>
<path class="st0" d="M162.7,130.22c-0.24-0.79-0.57-1.69-1.67-1.69c-0.69,0-1.14,0.5-1.14,1.19c0,0.68,0.44,1.08,1.49,1.62
	c1.28,0.65,2.09,1.29,2.09,2.51c0,1.45-1.17,2.51-2.87,2.51c-0.76,0-1.44-0.21-2-0.38c-0.07-0.28-0.27-1.56-0.36-2.14l0.46-0.11
	c0.24,0.78,0.91,2.12,2.07,2.12c0.73,0,1.17-0.47,1.17-1.26c0-0.71-0.43-1.13-1.43-1.69c-1.24-0.69-2.05-1.3-2.05-2.59
	c0-1.29,0.98-2.31,2.77-2.31c0.82,0,1.44,0.18,1.7,0.22c0.05,0.46,0.13,1.1,0.23,1.87L162.7,130.22z"/>
<path class="st0" d="M169.07,136.18v-0.46c0.75-0.11,0.75-0.25,0.58-0.78c-0.12-0.37-0.31-0.92-0.49-1.42h-2.32
	c-0.13,0.38-0.3,0.85-0.42,1.23c-0.25,0.78,0.04,0.87,0.98,0.96v0.46h-2.94v-0.46c0.75-0.1,0.94-0.21,1.35-1.24l2.48-6.36l0.57-0.11
	c0.76,2.14,1.57,4.33,2.35,6.39c0.44,1.14,0.55,1.23,1.32,1.33v0.46H169.07z M168.02,130.3c-0.35,0.89-0.68,1.71-0.98,2.61h1.9
	L168.02,130.3z"/>
<path class="st0" d="M179.87,134.02c-0.1,0.53-0.43,1.83-0.54,2.17h-5.91v-0.46c1.05-0.07,1.14-0.16,1.14-1.19v-4.69
	c0-1.03-0.12-1.13-1.01-1.21v-0.46h3.72v0.46c-0.93,0.09-1.05,0.17-1.05,1.21v4.78c0,0.68,0.02,0.98,0.68,1
	c0.02,0.01,0.57,0.01,0.62,0.01c0.68,0,0.86-0.15,1.14-0.48c0.23-0.25,0.54-0.78,0.75-1.28L179.87,134.02z"/>
<path class="st0" d="M185.64,128.01c2.21,0,4,1.66,4,4.09c0,2.62-1.81,4.27-4.06,4.27c-2.38,0-4.11-1.8-4.11-4.17
	C181.47,130.09,182.92,128.01,185.64,128.01z M185.46,128.55c-1.22,0-2.11,1.23-2.11,3.41c0,2.08,0.8,3.86,2.41,3.86
	c1.13,0,2.01-1.13,2.01-3.39C187.77,130.01,186.84,128.55,185.46,128.55z"/>
<path class="st0" d="M199.82,128.64c-0.73,0.1-0.95,0.26-0.99,0.81c-0.04,0.48-0.07,0.9-0.07,1.97v4.9h-0.67l-4.97-6.15v2.78
	c0,1.07,0.02,1.55,0.06,1.91c0.05,0.54,0.3,0.82,1.18,0.87v0.46h-2.96v-0.46c0.68-0.06,0.98-0.25,1.05-0.82
	c0.05-0.44,0.07-0.89,0.07-1.96v-2.92c0-0.41-0.02-0.68-0.25-1c-0.21-0.31-0.5-0.34-1-0.39v-0.46h2.32l4.54,5.45v-2.22
	c0-1.07-0.01-1.48-0.05-1.93c-0.03-0.53-0.23-0.79-1.22-0.85v-0.46h2.94V128.64z"/>
<path class="st0" d="M215.04,130.77c-0.79,0.07-0.89,0.23-1.31,0.8c-0.35,0.44-0.68,0.9-1.05,1.43c0.77,0.76,1.59,1.74,2.13,2.6
	l-0.06,0.15c-1.19,0.01-1.93-0.28-2.09-0.43c-0.15-0.16-0.55-0.55-0.98-1.01c-0.75,1-1.48,1.44-2.34,1.44
	c-1.67,0-2.48-1.22-2.48-2.29c0-1.03,0.54-1.48,1.7-2.2c-0.48-0.48-0.82-1.02-0.82-1.77c0-1.11,0.92-2.07,2.18-2.07
	c1.22,0,2,0.78,2,1.78c0,0.43-0.19,0.8-0.52,1.05c-0.3,0.22-0.6,0.41-0.97,0.63c0.33,0.28,1.04,0.95,1.87,1.76
	c0.2-0.32,0.44-0.64,0.61-1.03c0.25-0.54,0.23-0.74-0.64-0.82v-0.47h2.75V130.77z M209.93,134.61c0.55,0,1.11-0.32,1.41-0.7
	c-0.86-0.91-1.41-1.43-2.42-2.33c-0.39,0.36-0.54,0.73-0.54,1.3C208.38,134.06,209.13,134.61,209.93,134.61z M209.84,127.92
	c-0.49,0-0.81,0.47-0.81,1.03c0,0.62,0.26,0.97,1.06,1.61c0.39-0.32,0.67-0.69,0.67-1.43C210.75,128.51,210.47,127.92,209.84,127.92
	z"/>
<path class="st0" d="M227.33,135.95v-0.46c0.91-0.1,0.97-0.18,0.97-1.29l-0.01-4.8c-0.86,2.12-1.8,4.46-2.66,6.55h-0.39
	c-0.77-2.01-1.62-4.3-2.48-6.45c-0.15,3.86-0.15,4.63-0.15,5.07c0.01,0.66,0.25,0.84,1.14,0.92v0.46h-2.96v-0.46
	c0.68-0.06,0.99-0.2,1.08-0.94c0.05-0.37,0.1-1.07,0.37-5.13c0.04-0.59-0.05-0.92-1.07-1.02v-0.46h2.57l2.3,5.43l2.31-5.43h2.52
	v0.46c-0.95,0.1-1.06,0.2-1.04,1.18l0.1,4.62c0.01,1.11,0.06,1.16,1.03,1.29v0.46H227.33z"/>
<path class="st0" d="M232.73,135.95v-0.46c0.91-0.09,1.01-0.16,1.01-1.19v-4.69c0-1.03-0.12-1.13-1.01-1.21v-0.46h3.68v0.46
	c-0.89,0.09-1.01,0.17-1.01,1.21v4.69c0,1.02,0.11,1.1,1.01,1.19v0.46H232.73z"/>
<path class="st0" d="M241.92,127.95c1.53,0,2.65,0.33,3.41,1.07c0.61,0.58,1.07,1.44,1.07,2.68c0,1.42-0.57,2.5-1.49,3.21
	c-0.88,0.69-2.01,1.03-3.37,1.03h-3.28v-0.46c0.91-0.07,1.01-0.18,1.01-1.21v-4.68c0-1.03-0.13-1.13-1.01-1.21v-0.46H241.92z
	 M240.93,134.2c0,0.87,0.21,1.17,1.08,1.17c1.61,0,2.54-1.16,2.54-3.48c0-1.17-0.31-2.19-0.86-2.72c-0.5-0.52-1.12-0.69-1.92-0.69
	c-0.44,0-0.64,0.1-0.72,0.17c-0.11,0.11-0.13,0.32-0.13,0.68V134.2z"/>
<path class="st0" d="M260.24,128.4c-0.86,0.11-1.01,0.3-1.35,1.3c-0.31,0.95-1.2,3.86-1.96,6.38h-0.67
	c-0.61-1.77-1.29-3.59-1.97-5.44c-0.62,1.86-1.22,3.66-1.78,5.44h-0.69c-0.48-1.74-1.24-4.28-1.91-6.46
	c-0.3-0.94-0.48-1.14-1.2-1.22v-0.46h3.6v0.46c-0.89,0.09-0.92,0.27-0.75,0.91c0.39,1.42,0.81,2.86,1.2,4.2
	c0.61-1.74,1.18-3.59,1.73-5.5h0.63c0.65,1.88,1.33,3.72,1.99,5.51c0.44-1.33,1.01-3.38,1.18-4.09c0.17-0.73,0.05-0.95-0.98-1.03
	v-0.46h2.91V128.4z"/>
<path class="st0" d="M261.28,135.95v-0.46c0.91-0.09,1.01-0.16,1.01-1.19v-4.69c0-1.03-0.12-1.13-1.01-1.21v-0.46h3.68v0.46
	c-0.89,0.09-1.01,0.17-1.01,1.21v4.69c0,1.02,0.11,1.1,1.01,1.19v0.46H261.28z"/>
<path class="st0" d="M272.34,129.99c-0.13-0.47-0.32-0.92-0.53-1.16c-0.25-0.27-0.4-0.32-0.98-0.32h-0.89
	c-0.41,0-0.45,0.02-0.45,0.44v2.68h1.27c0.7,0,0.8-0.18,0.98-1.05h0.44v2.73h-0.45c-0.13-0.84-0.31-1.05-0.97-1.05h-1.27v1.92
	c0,1.13,0.07,1.22,1.14,1.29v0.46h-3.81v-0.46c0.91-0.09,1.01-0.16,1.01-1.29v-4.53c0-1.1-0.11-1.19-1.01-1.27v-0.46h4.04
	c1.03,0,1.62-0.01,1.81-0.02c0.01,0.21,0.07,1.27,0.13,1.99L272.34,129.99z"/>
<path class="st0" d="M281.05,133.85c-0.06,0.33-0.39,1.75-0.5,2.09h-6.19v-0.44c1.09-0.11,1.16-0.17,1.16-1.21v-4.7
	c0-1.05-0.14-1.12-0.95-1.19v-0.46h3.87c1.25,0,1.67-0.01,1.84-0.02c0.01,0.22,0.07,1.23,0.12,1.99l-0.47,0.06
	c-0.11-0.42-0.31-0.92-0.51-1.14c-0.21-0.25-0.37-0.32-0.98-0.32h-0.78c-0.45,0-0.5,0.02-0.5,0.44v2.57h1.17
	c0.67,0,0.79-0.18,0.97-1.06h0.46v2.74h-0.46c-0.19-0.91-0.29-1.06-0.98-1.06h-1.16v2.12c0,0.85,0.02,1.11,0.76,1.12h0.85
	c0.67,0,0.85-0.09,1.11-0.42c0.3-0.36,0.54-0.81,0.73-1.23L281.05,133.85z"/>
<path class="st0" d="M293.69,130.26c-0.13-0.57-0.39-1.03-0.51-1.21c-0.21-0.26-0.31-0.36-1.01-0.36h-0.76v5.78
	c0,1.03,0.12,1.11,1.18,1.19v0.46h-3.96v-0.46c1.01-0.09,1.12-0.16,1.12-1.19v-5.78h-0.73c-0.67,0-0.86,0.11-1.08,0.41
	c-0.17,0.23-0.33,0.68-0.49,1.17h-0.45c0.08-0.9,0.17-1.86,0.19-2.45h0.36c0.18,0.28,0.32,0.31,0.68,0.31h4.77
	c0.32,0,0.49-0.07,0.69-0.31h0.35c0.01,0.52,0.06,1.6,0.12,2.4L293.69,130.26z"/>
<path class="st0" d="M304.37,128.59c-0.93,0.1-1.01,0.17-1.01,1.19v4.71c0,1.02,0.1,1.1,1.01,1.18v0.46h-3.68v-0.46
	c0.94-0.12,1.01-0.16,1.01-1.18v-2.31h-3.22v2.31c0,1.02,0.11,1.08,1,1.18v0.46h-3.67v-0.46c0.88-0.1,1.01-0.16,1.01-1.18v-4.71
	c0-1.02-0.11-1.12-1.01-1.19v-0.46h3.67v0.46c-0.91,0.09-1,0.17-1,1.19v1.76h3.22v-1.76c0-1.02-0.12-1.1-1.01-1.19v-0.46h3.68
	V128.59z"/>
<path class="st0" d="M312.76,134.04c-0.06,0.33-0.39,1.75-0.5,2.09h-6.19v-0.44c1.09-0.11,1.16-0.17,1.16-1.21v-4.7
	c0-1.05-0.14-1.12-0.95-1.19v-0.46h3.87c1.25,0,1.67-0.01,1.84-0.02c0.01,0.22,0.07,1.23,0.12,1.99l-0.47,0.06
	c-0.11-0.42-0.31-0.92-0.51-1.14c-0.21-0.25-0.37-0.32-0.98-0.32h-0.78c-0.45,0-0.5,0.02-0.5,0.44v2.57h1.17
	c0.67,0,0.79-0.18,0.97-1.06h0.46v2.74h-0.46c-0.19-0.91-0.29-1.06-0.98-1.06h-1.16v2.12c0,0.85,0.02,1.11,0.76,1.12h0.85
	c0.67,0,0.85-0.09,1.11-0.42c0.3-0.36,0.54-0.81,0.73-1.23L312.76,134.04z"/>
<path class="st0" d="M321.86,136.21c-0.07,0-0.22,0-0.36-0.01c-1.51-0.07-1.95-0.41-2.31-0.92c-0.48-0.68-0.82-1.43-1.23-2.17
	c-0.18-0.33-0.35-0.41-0.73-0.41l-0.24-0.01v1.8c0,1,0.12,1.08,1.01,1.19v0.46h-3.65v-0.46c0.91-0.1,1.01-0.2,1.01-1.19v-4.71
	c0-0.97-0.12-1.11-1.01-1.18v-0.46h3.46c1.06,0,1.67,0.12,2.16,0.47c0.48,0.33,0.8,0.87,0.8,1.64c0,1.1-0.7,1.67-1.49,1.99
	c0.18,0.37,0.64,1.17,1,1.74c0.42,0.68,0.68,1.01,0.91,1.28c0.27,0.32,0.41,0.42,0.75,0.54L321.86,136.21z M317.32,132.18
	c0.51,0,0.9-0.09,1.17-0.32c0.39-0.34,0.56-0.81,0.56-1.44c0-1.3-0.73-1.77-1.39-1.77c-0.32,0-0.48,0.05-0.55,0.12
	c-0.08,0.07-0.11,0.22-0.11,0.47v2.94H317.32z"/>
<path class="st0" d="M326.8,136.13v-0.46c0.75-0.11,0.75-0.25,0.58-0.78c-0.12-0.37-0.31-0.92-0.49-1.42h-2.32
	c-0.13,0.38-0.3,0.85-0.42,1.23c-0.25,0.78,0.04,0.87,0.98,0.96v0.46h-2.94v-0.46c0.75-0.1,0.94-0.21,1.35-1.24l2.48-6.36l0.57-0.11
	c0.76,2.14,1.57,4.33,2.35,6.39c0.44,1.14,0.55,1.23,1.32,1.33v0.46H326.8z M325.75,130.25c-0.35,0.89-0.68,1.71-0.98,2.61h1.9
	L325.75,130.25z"/>
<path class="st0" d="M334.67,128.13c0.94,0,1.66,0.17,2.15,0.5c0.6,0.41,0.93,1,0.93,1.85c0,1.78-1.47,2.54-2.74,2.55
	c-0.12,0-0.27-0.01-0.36-0.02l-0.69-0.18v1.67c0,1.03,0.08,1.08,1.12,1.18v0.46h-3.79v-0.46c0.89-0.11,1.01-0.15,1.01-1.18v-4.7
	c0-1.03-0.12-1.14-1.01-1.21v-0.46H334.67z M333.95,132.31c0.14,0.07,0.38,0.12,0.63,0.12c0.55,0,1.44-0.33,1.44-1.96
	c0-1.38-0.73-1.83-1.5-1.83c-0.25,0-0.39,0.06-0.46,0.12c-0.08,0.07-0.11,0.2-0.11,0.38V132.31z"/>
<path class="st0" d="M346.36,128.59c-0.76,0.09-1.04,0.26-1.47,1.01c-0.43,0.76-0.8,1.44-1.38,2.67c-0.1,0.2-0.13,0.34-0.13,0.65
	v1.53c0,1.07,0.1,1.11,1.07,1.23v0.46h-3.77v-0.46c0.94-0.12,1.02-0.16,1.02-1.23v-1.42c0-0.27-0.05-0.39-0.13-0.57
	c-0.35-0.73-0.79-1.55-1.5-2.84c-0.44-0.8-0.62-0.96-1.31-1.03v-0.46h3.49v0.46c-0.8,0.11-0.78,0.27-0.57,0.7
	c0.39,0.8,0.91,1.78,1.36,2.68c0.36-0.69,0.93-1.87,1.26-2.62c0.23-0.49,0.13-0.65-0.73-0.76v-0.46h2.78V128.59z"/>
<g>
	<g>
		<path class="st0" d="M123.74,48.61c0.1,0.14,0.24,0.31,0.42,0.53c0.18,0.21,0.4,0.43,0.66,0.65c0.26,0.22,0.55,0.44,0.88,0.64
			c0.33,0.21,0.68,0.37,1.07,0.49c0.43,0.15,0.81,0.23,1.16,0.25c0.34,0.02,0.65,0,0.93-0.05c0.28-0.05,0.53-0.13,0.75-0.23
			c0.22-0.1,0.43-0.2,0.62-0.29c0.66-0.33,1.16-0.7,1.48-1.11c0.32-0.42,0.53-0.83,0.63-1.25c0.1-0.42,0.11-0.82,0.05-1.2
			c-0.06-0.38-0.16-0.7-0.28-0.95c-0.23-0.46-0.52-0.79-0.89-0.98c-0.37-0.19-0.78-0.3-1.24-0.32c-0.46-0.02-0.96,0.01-1.49,0.1
			c-0.53,0.09-1.08,0.18-1.63,0.28c-0.56,0.1-1.12,0.16-1.68,0.2c-0.56,0.03-1.1-0.01-1.61-0.14c-0.51-0.13-0.99-0.36-1.43-0.71
			c-0.44-0.34-0.83-0.85-1.16-1.53c-0.25-0.5-0.37-1.04-0.37-1.61c0-0.57,0.11-1.14,0.33-1.69c0.23-0.55,0.56-1.08,1.01-1.57
			c0.45-0.49,1-0.9,1.65-1.22c0.41-0.2,0.79-0.34,1.14-0.42c0.35-0.08,0.66-0.14,0.94-0.17c0.28-0.04,0.53-0.06,0.75-0.07
			c0.22-0.01,0.4-0.06,0.55-0.13c0.17-0.09,0.28-0.17,0.31-0.26c0.03-0.08,0.04-0.22,0.03-0.4l0.3-0.15l1.75,3.57l-0.24,0.12
			c-0.37-0.36-0.74-0.72-1.11-1.06c-0.38-0.34-0.78-0.62-1.22-0.84s-0.9-0.33-1.41-0.35c-0.51-0.02-1.06,0.13-1.68,0.43
			c-0.5,0.25-0.91,0.53-1.22,0.86c-0.31,0.33-0.55,0.67-0.7,1.02c-0.15,0.35-0.23,0.7-0.23,1.05c0,0.34,0.07,0.66,0.21,0.95
			c0.21,0.44,0.51,0.74,0.88,0.92c0.37,0.17,0.8,0.27,1.27,0.29c0.48,0.02,0.99-0.01,1.55-0.1c0.56-0.09,1.13-0.17,1.71-0.26
			c0.59-0.09,1.17-0.15,1.75-0.19c0.58-0.04,1.13-0.01,1.65,0.11c0.52,0.12,1,0.33,1.45,0.64c0.44,0.31,0.81,0.78,1.12,1.41
			c0.3,0.61,0.46,1.26,0.48,1.93c0.02,0.67-0.1,1.33-0.35,1.97c-0.25,0.64-0.64,1.23-1.15,1.79c-0.51,0.56-1.16,1.02-1.93,1.4
			c-0.39,0.19-0.79,0.34-1.21,0.46c-0.42,0.11-0.81,0.21-1.19,0.29c-0.37,0.08-0.7,0.15-1,0.2c-0.29,0.05-0.5,0.11-0.63,0.17
			c-0.17,0.09-0.29,0.18-0.33,0.27c-0.05,0.09-0.06,0.24-0.04,0.45l-0.3,0.15l-2.05-4.17L123.74,48.61z"/>
		<path class="st0" d="M142.8,30.17c-0.5,0.13-0.93,0.3-1.29,0.51c-0.36,0.21-0.67,0.48-0.91,0.81c-0.24,0.33-0.43,0.75-0.55,1.26
			c-0.12,0.51-0.19,1.13-0.21,1.88l-0.26,0.07l-0.99-3.7l12.67-3.39l0.99,3.7l-0.26,0.07c-0.39-0.63-0.76-1.14-1.12-1.52
			c-0.36-0.38-0.73-0.65-1.11-0.82c-0.38-0.17-0.77-0.25-1.19-0.24c-0.42,0-0.88,0.07-1.37,0.21l-0.73,0.19l3.7,13.82l1.86-0.5
			l0.08,0.28l-6.65,1.78l-0.08-0.28l1.86-0.5l-3.7-13.82L142.8,30.17z"/>
		<path class="st0" d="M168.54,25.22l0.02,0.29l-1.92,0.15l0.75,9.36c0.05,0.65,0.13,1.29,0.25,1.9c0.11,0.61,0.3,1.15,0.57,1.62
			c0.27,0.47,0.64,0.83,1.12,1.1c0.48,0.26,1.1,0.36,1.86,0.3c0.75-0.06,1.37-0.2,1.87-0.41c0.49-0.21,0.89-0.48,1.21-0.79
			c0.31-0.31,0.54-0.65,0.7-1.02c0.15-0.37,0.26-0.73,0.31-1.1c0.05-0.36,0.08-0.7,0.06-1.01c-0.01-0.31-0.02-0.58-0.04-0.78
			l-0.79-9.8l-1.9,0.15l-0.02-0.29l4.17-0.33l0.02,0.29l-1.94,0.16l0.79,9.78c0.02,0.22,0.03,0.5,0.05,0.85
			c0.01,0.34-0.01,0.7-0.08,1.09c-0.07,0.38-0.18,0.77-0.35,1.16c-0.16,0.39-0.42,0.75-0.77,1.08c-0.35,0.33-0.8,0.61-1.36,0.84
			c-0.56,0.23-1.25,0.38-2.08,0.45c-1.35,0.11-2.45,0.05-3.29-0.19c-0.84-0.23-1.5-0.57-1.98-1.02c-0.48-0.44-0.81-0.97-1-1.57
			c-0.19-0.6-0.31-1.21-0.36-1.84l-0.78-9.74l-1.94,0.16l-0.02-0.29L168.54,25.22z"/>
		<path class="st0" d="M187.16,24.92l0.03-0.29l1.91,0.19c0.71,0.07,1.42,0.13,2.13,0.18c0.71,0.05,1.42,0.11,2.13,0.18
			c0.62,0.06,1.28,0.17,1.97,0.32c0.68,0.15,1.36,0.37,2.02,0.65c0.66,0.28,1.28,0.63,1.85,1.06c0.57,0.42,1.07,0.93,1.49,1.53
			c0.42,0.6,0.73,1.3,0.93,2.09c0.2,0.79,0.25,1.7,0.15,2.73c-0.1,1.01-0.33,1.89-0.68,2.62c-0.35,0.74-0.79,1.36-1.31,1.87
			s-1.1,0.91-1.73,1.22c-0.63,0.3-1.28,0.53-1.95,0.68c-0.67,0.15-1.32,0.24-1.96,0.26c-0.64,0.02-1.23,0-1.77-0.05
			c-0.79-0.08-1.58-0.16-2.36-0.25c-0.78-0.09-1.57-0.18-2.36-0.25l-1.91-0.19l0.03-0.29l1.91,0.19l1.41-14.24L187.16,24.92z
			 M191.78,39.82c0.9,0.09,1.68,0.06,2.34-0.09c0.66-0.15,1.23-0.39,1.7-0.71s0.86-0.71,1.16-1.16c0.3-0.45,0.55-0.92,0.73-1.43
			c0.18-0.51,0.32-1.02,0.41-1.54c0.09-0.52,0.16-1,0.21-1.46c0.11-1.12,0.14-2.15,0.1-3.07c-0.05-0.92-0.25-1.73-0.59-2.41
			c-0.35-0.69-0.87-1.24-1.58-1.66c-0.71-0.42-1.67-0.69-2.87-0.81c-0.28-0.03-0.53-0.05-0.75-0.06c-0.22-0.01-0.41-0.02-0.55,0
			l-1.41,14.24C191.08,39.73,191.45,39.79,191.78,39.82z"/>
		<path class="st0" d="M218.82,29.88l-0.07,0.28l-1.86-0.48l-3.58,13.85l1.86,0.48l-0.07,0.28l-6.66-1.72l0.07-0.28l1.86,0.48
			l3.58-13.85l-1.86-0.48l0.07-0.28L218.82,29.88z"/>
		<path class="st0" d="M227.39,37.04c0.84-0.67,1.75-1.15,2.72-1.46c0.97-0.3,1.96-0.42,2.96-0.36c1,0.06,1.91,0.28,2.72,0.65
			c0.87,0.41,1.66,0.97,2.36,1.7c0.7,0.73,1.24,1.55,1.62,2.46c0.38,0.92,0.58,1.9,0.58,2.96c0.01,1.06-0.24,2.13-0.75,3.22
			c-0.44,0.95-1.05,1.76-1.84,2.43s-1.65,1.18-2.6,1.52c-0.95,0.34-1.94,0.5-2.97,0.48c-1.03-0.02-2.01-0.26-2.96-0.7
			c-0.94-0.44-1.75-1.03-2.44-1.79c-0.69-0.76-1.22-1.61-1.58-2.54c-0.36-0.93-0.54-1.91-0.54-2.94c0-1.03,0.23-2.04,0.69-3.02
			C225.87,38.58,226.54,37.71,227.39,37.04z M227.17,44.48c-0.25,0.94-0.34,1.74-0.25,2.4c0.08,0.66,0.33,1.21,0.75,1.65
			s0.98,0.83,1.69,1.16c0.94,0.44,1.75,0.6,2.44,0.5c0.69-0.1,1.32-0.4,1.87-0.88c0.55-0.49,1.06-1.14,1.52-1.95
			c0.46-0.81,0.92-1.71,1.38-2.69c0.41-0.88,0.78-1.74,1.09-2.57c0.32-0.83,0.49-1.61,0.51-2.35s-0.15-1.41-0.52-2.02
			c-0.37-0.61-1.03-1.14-1.98-1.58c-0.88-0.41-1.67-0.57-2.36-0.49c-0.69,0.09-1.31,0.37-1.87,0.85c-0.56,0.48-1.08,1.11-1.56,1.91
			c-0.48,0.79-0.95,1.69-1.41,2.69C227.85,42.41,227.42,43.54,227.17,44.48z"/>
	</g>
	<g>
		<path class="st0" d="M330.14,75.67c-11.65-5.96-30.28-2.16-40.37,5.14c-4.48,3.23-8.04,6.35-11.17,9.18
			c-1.27-1.2-2.49-2.47-3.66-3.83c-1.11-1.28-3.05-1.42-4.34-0.31c-1.28,1.11-1.42,3.05-0.31,4.34c1.21,1.4,2.46,2.71,3.71,3.93
			c-5.55,4.84-10.18,7.89-18.06,7.89c-5.33,0-7.94-3.01-9.2-5.54c-0.59-1.19-1.01-2.52-1.24-3.89c3.93,0.66,7.83,0.23,10.35-1.17
			c4.37-2.42,6.88-5.25,7.48-8.43c0.45-2.39-0.24-4.76-1.98-6.85c-1.66-1.99-4.35-3.06-7.56-2.97c-4.39,0.1-8.95,2.31-11.35,5.48
			c-1.06,1.41-1.88,3.08-2.44,4.9c-3.91-3.42-7.74-7.5-7.78-7.54c-0.86-0.92-2.2-1.22-3.37-0.76c-1.17,0.46-1.95,1.6-1.95,2.86
			v16.57c0,4.63-3.77,8.4-8.4,8.4c-4.63,0-8.4-3.77-8.4-8.4v-9.51c0-5.97-3.94-10.13-9.59-10.13c-5.73,0-9.15,5.15-9.15,10.13v9.67
			c0,4.06-1.78,8.4-6.79,8.4c-5.01,0-6.79-4.34-6.79-8.4V78.09c0-1.7-1.38-3.08-3.08-3.08s-3.08,1.38-3.08,3.08v16.57
			c0,4.63-3.77,8.4-8.4,8.4c-4.63,0-8.4-3.77-8.4-8.4V77.49c7.14,1.58,11.97-2.24,13.72-4.94c0.92-1.41,0.52-3.27-0.88-4.21
			c-1.39-0.93-3.3-0.56-4.25,0.82c-0.49,0.72-3.07,3.87-8.59,1.95V65.5c0-1.7-1.38-3.08-3.08-3.08c-1.7,0-3.08,1.38-3.08,3.08v3.33
			c-2.33-0.48-4.52-0.36-6.55,0.38c-4.34,1.58-6.12,5.34-6.3,5.76c-0.68,1.54,0.01,3.32,1.54,4.02c0.41,0.19,0.84,0.28,1.27,0.28
			c1.16,0,2.27-0.66,2.8-1.77c0.01-0.02,0.9-1.85,2.86-2.53c1.23-0.43,2.7-0.35,4.39,0.23v2.89c0,2.87-0.8,9.18-3.82,14.68
			c-3.75,6.83-9.74,10.29-17.8,10.29c-4.63,0-8.4-3.77-8.4-8.4c0-4.63,3.77-8.4,8.4-8.4c1.68,0,3.31,0.5,4.69,1.43
			c1.41,0.95,3.32,0.58,4.27-0.83c0.95-1.41,0.58-3.32-0.83-4.27c-2.41-1.63-5.22-2.49-8.14-2.49c-6.24,0-11.57,3.96-13.63,9.5
			c-7.19-0.78-13.29-2.56-18.99-4.83V62.95c0-1.33-0.85-2.5-2.11-2.92c-1.26-0.42-2.64,0.02-3.43,1.08
			c-0.1,0.13-5.18,6.92-12.7,15.18c-7.71-3.63-15.98-6.97-26.31-8.42c-15.82-2.22-31.6,2.73-40.2,12.61
			c-4.94,5.67-6.79,12.36-5.09,18.37c1.71,6.03,6.01,10.64,12.09,12.97c3.04,1.17,6.42,1.74,10.01,1.74
			c8.12,0,17.33-2.92,26.16-8.48c8.91-5.61,17.67-13.76,24.79-21.26c0.45,0.22,0.89,0.44,1.34,0.65c3.04,1.48,6.11,2.98,9.31,4.39
			v16.63c0,1.7,1.38,3.08,3.08,3.08c1.7,0,3.08-1.38,3.08-3.08V91.36c5.42,2,11.33,3.59,18.12,4.35c0.54,7.53,6.83,13.5,14.49,13.5
			c10.95,0,17.78-5.19,21.94-11.55c1.39,6.59,7.24,11.55,14.23,11.55c4.43,0,8.39-2,11.06-5.13c2.29,3.3,5.9,5.28,10.28,5.28
			c7.62,0,12.94-5.98,12.94-14.55v-9.67c0-1.61,0.95-3.98,3-3.98c2.84,0,3.44,2.17,3.44,3.98v9.51c0,8.02,6.53,14.55,14.55,14.55
			c7.53,0,13.74-5.75,14.47-13.09c0.05-0.21,0.07-0.43,0.07-0.66v-9.94c1.05,0.99,2.18,2.03,3.32,3.01
			c0.84,0.72,1.76,1.35,2.74,1.88c0.09,3.05,0.79,6.12,2.12,8.8c2.87,5.77,8.09,8.95,14.7,8.95c10.33,0,16.26-4.23,22.75-9.97
			c7.37,5.77,14.86,8.81,20.52,10.41c4.94,1.4,9.92,2.1,14.64,2.1c4.82,0,9.35-0.73,13.27-2.19c8.18-3.04,12.88-8.99,12.89-16.31
			C340.01,84.68,336.6,78.97,330.14,75.67z M247.35,82.33c1.29-1.7,4.06-2.98,6.59-3.04c1.24-0.03,2.27,0.26,2.69,0.76
			c0.81,0.97,0.7,1.58,0.66,1.78c-0.09,0.45-0.66,2.1-4.41,4.18c-1.44,0.8-4.37,1-7.26,0.33C245.95,84.81,246.54,83.42,247.35,82.33
			z M49.6,99.86c-11.1,7-22.58,9.31-30.69,6.2c-4.29-1.64-7.18-4.72-8.37-8.9c-1.14-4.02,0.21-8.51,3.81-12.64
			c4.74-5.44,14.54-11.05,27.82-11.05c2.2,0,4.5,0.15,6.89,0.49c8.77,1.23,15.86,3.9,22.73,7.05C65.2,87.82,57.39,94.95,49.6,99.86z
			 M88.31,82.11c-2.1-0.97-4.19-1.99-6.3-3.02c2.41-2.69,4.53-5.18,6.3-7.31V82.11z M324.97,102.73
			c-10.89,4.05-27.9,1.51-41.61-8.75c2.87-2.57,6.1-5.35,10.03-8.19c9.5-6.87,25.38-9.04,33.96-4.65c4.32,2.21,6.51,5.93,6.51,11.04
			C333.84,98.49,328.28,101.5,324.97,102.73z"/>
		<circle class="st0" cx="174.72" cy="64.46" r="3.03"/>
	</g>
</g>
</svg>
