<?xml version="1.0" encoding="utf-8"?>
<!-- Generator: Adobe Illustrator 21.0.0, SVG Export Plug-In . SVG Version: 6.00 Build 0)  -->
<svg version="1.1" id="レイヤー_1" xmlns="http://www.w3.org/2000/svg" xmlns:xlink="http://www.w3.org/1999/xlink" x="0px"
	 y="0px" viewBox="0 0 226.8 56.7" style="enable-background:new 0 0 226.8 56.7;" xml:space="preserve">
<style type="text/css">
	.st0{fill:#E60012;}
</style>
<path d="M83.1,6.7C84,7.2,85,7.8,85,9.2c0,1.7-1.4,2.5-3.3,2.5c-1.1,0-2-0.3-2.3-0.3V10c0.5,0.3,1.4,0.7,2.4,0.7
	c0.9,0,1.7-0.4,1.7-1.3c0-0.9-0.8-1.3-1.5-1.7l-0.8-0.5c-0.8-0.5-2-1-2-2.4c0-1.6,1.3-2.3,3-2.3c0.9,0,1.8,0.2,2.1,0.3V4
	c-0.2-0.1-1.2-0.4-2.1-0.4c-0.9,0-1.5,0.4-1.5,1.2c0,0.7,0.8,1.1,1.5,1.5L83.1,6.7L83.1,6.7z"/>
<polygon points="105.8,3.7 103.6,3.7 103.6,2.6 109.4,2.6 109.4,3.7 107.1,3.7 107.1,11.6 105.8,11.6 105.8,3.7 "/>
<path d="M134.7,8.9c0,1.9-1.3,2.8-3.1,2.8c-1.8,0-3.1-0.9-3.1-2.8V2.6h1.3v6c0,0.7,0,2,1.7,2c1.8,0,1.8-1.3,1.8-2v-6h1.3V8.9
	L134.7,8.9z"/>
<path d="M155,2.6h2.3c2.8,0,3.8,1.5,3.8,4.4c0,3.7-1.7,4.5-3.8,4.5H155V2.6L155,2.6z M156.3,10.5h0.8c1.6,0,2.6-0.6,2.6-3.4
	c0-2.8-1-3.4-2.6-3.4h-0.8V10.5L156.3,10.5z"/>
<polygon points="181,2.6 182.3,2.6 182.3,11.6 181,11.6 181,2.6 "/>
<path d="M202.2,7.1c0-2.4,0.7-4.6,3.5-4.6c2.8,0,3.6,2.2,3.6,4.6c0,2.4-0.8,4.6-3.6,4.6C202.9,11.7,202.2,9.5,202.2,7.1L202.2,7.1z
	 M205.7,10.7c1.8,0,2.1-2.1,2.1-3.6c0-1.5-0.3-3.6-2.1-3.6c-1.8,0-2.1,2.1-2.1,3.6C203.6,8.6,203.9,10.7,205.7,10.7L205.7,10.7z"/>
<polygon class="st0" points="52.1,16.4 45.8,37.6 58.5,37.6 52.2,16.4 52.1,16.4 "/>
<path class="st0" d="M49.2,12h5.9l10.7,33.2c3.5-4.6,5.7-10.3,5.7-16.5c0-15-12.1-27.1-27.1-27.1c-15,0-27.1,12.1-27.1,27.1
	c0,11.9,7.7,22,18.3,25.6L49.2,12L49.2,12z"/>
<path class="st0" d="M59.8,41.7H44.5L40,55.5c1.4,0.2,2.8,0.4,4.3,0.4c6.8,0,13.1-2.6,17.9-6.7L59.8,41.7L59.8,41.7z"/>
<path d="M95.6,55.4c-1,0.3-2.3,0.5-4.2,0.5c-8.4,0-12.1-5.4-12.1-13.3c0-7.4,2.7-12.5,9.3-12.5c7.1,0,7.9,5.4,7.9,7.7h-3.4
	c0-2.7-1.5-5.2-4.6-5.2c-4.7,0-6.2,5.1-6.2,9.6c0,6.9,3,11.2,9.4,11.2c2,0,2.9-0.3,3.8-0.5V55.4L95.6,55.4z"/>
<path d="M123.8,55.7c-0.9,0.2-1.8,0.2-2.6,0.2c-6.4,0-6.5-4.2-6.5-6.1V33.2h-3.9v-2.5h3.9V25l2.6-1.7v7.4h6.6v2.5h-6.6v15.6
	c0,1.7,0,4.7,4,4.7c1.5,0,1.9-0.3,2.5-0.5V55.7L123.8,55.7z"/>
<path d="M139.5,19.6h3.8v4.2h-3.8V19.6L139.5,19.6z M140.1,30.7h2.6v24.7h-2.6V30.7L140.1,30.7z"/>
<polygon points="158.1,30.7 161,30.7 169.1,51.3 176.3,30.7 179.1,30.7 170.6,55.3 167.8,55.3 158.1,30.7 "/>
<path d="M209,55.3c-1.5,0.4-3.3,0.6-5.4,0.6c-7.6,0-11.7-4.9-11.7-13.6c0-8.1,3.4-12.2,9.4-12.2c6.1,0,8.2,4.7,8.2,8.9v1.3h-14.4
	c-0.1,0.9-0.1,1.7-0.1,2.5c0,1.9,0.1,10.6,9.5,10.6c1.4,0,3.3-0.3,4.5-0.7V55.3L209,55.3z M206.4,37.8c0-1.5-1-5.2-5.2-5.2
	c-4.6,0-5.5,3.6-5.9,5.2H206.4L206.4,37.8z"/>
</svg>
